<svg width="50" height="50" viewBox="0 0 50 50" fill="none" xmlns="http://www.w3.org/2000/svg">
<path fill-rule="evenodd" clip-rule="evenodd" d="M4.16666 25C4.16666 13.4937 13.4937 4.16663 25 4.16663C36.5062 4.16663 45.8333 13.4937 45.8333 25C45.8333 36.5062 36.5062 45.8333 25 45.8333C13.4937 45.8333 4.16666 36.5062 4.16666 25ZM25 8.33329C20.5797 8.33329 16.3405 10.0892 13.2149 13.2148C10.0893 16.3405 8.33333 20.5797 8.33333 25C8.33333 29.4202 10.0893 33.6595 13.2149 36.7851C16.3405 39.9107 20.5797 41.6666 25 41.6666C29.4203 41.6666 33.6595 39.9107 36.7851 36.7851C39.9107 33.6595 41.6667 29.4202 41.6667 25C41.6667 20.5797 39.9107 16.3405 36.7851 13.2148C33.6595 10.0892 29.4203 8.33329 25 8.33329Z" fill="#1E1E1E"/>
<path fill-rule="evenodd" clip-rule="evenodd" d="M27.0833 14.5833C27.0833 14.0308 26.8638 13.5009 26.4731 13.1102C26.0824 12.7195 25.5525 12.5 25 12.5C24.4475 12.5 23.9176 12.7195 23.5269 13.1102C23.1362 13.5009 22.9167 14.0308 22.9167 14.5833V22.9167H14.5833C14.0308 22.9167 13.5009 23.1362 13.1102 23.5269C12.7195 23.9176 12.5 24.4475 12.5 25C12.5 25.5525 12.7195 26.0824 13.1102 26.4731C13.5009 26.8638 14.0308 27.0833 14.5833 27.0833H22.9167V35.4167C22.9167 35.9692 23.1362 36.4991 23.5269 36.8898C23.9176 37.2805 24.4475 37.5 25 37.5C25.5525 37.5 26.0824 37.2805 26.4731 36.8898C26.8638 36.4991 27.0833 35.9692 27.0833 35.4167V27.0833H35.4167C35.9692 27.0833 36.4991 26.8638 36.8898 26.4731C37.2805 26.0824 37.5 25.5525 37.5 25C37.5 24.4475 37.2805 23.9176 36.8898 23.5269C36.4991 23.1362 35.9692 22.9167 35.4167 22.9167H27.0833V14.5833Z" fill="#1E1E1E"/>
</svg>