<svg width="51" height="55" viewBox="0 0 51 55" fill="none" xmlns="http://www.w3.org/2000/svg">
<path d="M49.8334 50.5417V22.5625C49.8334 22.0515 49.7235 21.5475 49.5123 21.0904C49.3011 20.6334 48.9945 20.2358 48.6167 19.9292L27.3251 2.64791C26.7986 2.22058 26.1582 1.98958 25.5001 1.98958C24.842 1.98958 24.2016 2.22058 23.6751 2.64791L2.38341 19.9292C2.00565 20.2358 1.69904 20.6334 1.48787 21.0904C1.27669 21.5475 1.16675 22.0515 1.16675 22.5625V50.5417C1.16675 51.4147 1.48721 52.2519 2.05763 52.8692C2.62806 53.4865 3.40171 53.8333 4.20841 53.8333H16.3751C17.1818 53.8333 17.9554 53.4865 18.5259 52.8692C19.0963 52.2519 19.4167 51.4147 19.4167 50.5417V40.6667C19.4167 39.7937 19.7372 38.9564 20.3076 38.3391C20.8781 37.7218 21.6517 37.375 22.4584 37.375H28.5417C29.3484 37.375 30.1221 37.7218 30.6925 38.3391C31.263 38.9564 31.5834 39.7937 31.5834 40.6667V50.5417C31.5834 51.4147 31.9039 52.2519 32.4743 52.8692C33.0447 53.4865 33.8184 53.8333 34.6251 53.8333H46.7917C47.5984 53.8333 48.3721 53.4865 48.9425 52.8692C49.513 52.2519 49.8334 51.4147 49.8334 50.5417Z" fill="black" stroke="black" stroke-width="2" stroke-linecap="round" stroke-linejoin="round"/>
</svg>